<?xml version="1.0" encoding="UTF-8" standalone="no"?>
<!-- Created with Inkscape (http://www.inkscape.org/) -->

<svg
   xmlns:dc="http://purl.org/dc/elements/1.1/"
   xmlns:cc="http://creativecommons.org/ns#"
   xmlns:rdf="http://www.w3.org/1999/02/22-rdf-syntax-ns#"
   xmlns:svg="http://www.w3.org/2000/svg"
   xmlns="http://www.w3.org/2000/svg"
   xmlns:sodipodi="http://sodipodi.sourceforge.net/DTD/sodipodi-0.dtd"
   xmlns:inkscape="http://www.inkscape.org/namespaces/inkscape"
   width="96"
   height="96"
   id="svg2"
   version="1.1"
   inkscape:version="0.48.5 r10040"
   sodipodi:docname="bubble.svg">
  <defs
     id="defs4">
    <filter
       style="color-interpolation-filters:sRGB;"
       inkscape:label="Drop Shadow"
       id="filter3969">
      <feFlood
         flood-opacity="0.25"
         flood-color="rgb(0,0,0)"
         result="flood"
         id="feFlood3971" />
      <feComposite
         in="flood"
         in2="SourceGraphic"
         operator="in"
         result="composite1"
         id="feComposite3973" />
      <feGaussianBlur
         in="composite"
         stdDeviation="1"
         result="blur"
         id="feGaussianBlur3975" />
      <feOffset
         dx="0"
         dy="4"
         result="offset"
         id="feOffset3977" />
      <feComposite
         in="SourceGraphic"
         in2="offset"
         operator="over"
         result="composite2"
         id="feComposite3979" />
    </filter>
  </defs>
  <sodipodi:namedview
     id="base"
     pagecolor="#ffffff"
     bordercolor="#666666"
     borderopacity="1.0"
     inkscape:pageopacity="0.0"
     inkscape:pageshadow="2"
     inkscape:zoom="1.4142136"
     inkscape:cx="-0.70563091"
     inkscape:cy="-51.388041"
     inkscape:document-units="px"
     inkscape:current-layer="layer1"
     showgrid="false"
     inkscape:window-width="1366"
     inkscape:window-height="705"
     inkscape:window-x="-8"
     inkscape:window-y="-8"
     inkscape:window-maximized="1" />
  <metadata
     id="metadata7">
    <rdf:RDF>
      <cc:Work
         rdf:about="">
        <dc:format>image/svg+xml</dc:format>
        <dc:type
           rdf:resource="http://purl.org/dc/dcmitype/StillImage" />
        <dc:title />
      </cc:Work>
    </rdf:RDF>
  </metadata>
  <g
     inkscape:label="Layer 1"
     inkscape:groupmode="layer"
     id="layer1"
     transform="translate(0,-956.3622)">
    <path
       style="fill:#ffffff;fill-opacity:1;stroke:none;stroke-width:23.67445946000000100;stroke-linejoin:round;stroke-miterlimit:4;stroke-opacity:0.25098040999999999;stroke-dasharray:none;"
       d="M 48 0 C 21.490332 6.0368377e-015 -4.6259293e-017 21.490332 0 48 C 0 74.509668 21.490332 96 48 96 C 74.509668 96 96 74.509668 96 48 C 96 21.490332 74.509668 -1.2119935e-014 48 0 z M 48 4 C 72.300529 4 92 23.699471 92 48 C 92 72.300529 72.300529 92 48 92 C 23.699471 92 4 72.300529 4 48 C 4 23.699471 23.699471 4 48 4 z M 48 8 C 25.90861 8 8 25.90861 8 48 C 8 70.09139 25.90861 88 48 88 C 70.09139 88 88 70.09139 88 48 C 88 25.90861 70.09139 8 48 8 z "
       transform="translate(0,956.3622)"
       id="path3757"
       inkscape:export-filename="C:\Users\Mariana\Documents\GitHub\social\assets\ui\bubble.png"
       inkscape:export-xdpi="180"
       inkscape:export-ydpi="180" />
  </g>
</svg>
